<svg xmlns="http://www.w3.org/2000/svg" viewBox="0 0 24 24" class="w-6 h-6">
  <path fill-rule="evenodd" d="M12.516 2.199a.75.75 0 00-1.032 0L2.684 9.82a.75.75 0 00-.184.821.75.75 0 00.705.508H4.5v9.375c0 .621.504 1.125 1.125 1.125h3.75a.375.375 0 00.375-.375V15a.375.375 0 01.375-.375h3a.375.375 0 01.375.375v6.375c0 .207.168.375.375.375h3.75c.621 0 1.125-.504 1.125-1.125V11.25h1.295a.75.75 0 00.705-.508.75.75 0 00-.184-.82l-8.7-7.723z" clip-rule="evenodd" 
   stroke="currentColor" 
      strokeWidth="2" 
      fill="none"
  />
</svg>
